/* XPM */
static char *af8ae547f5554d95e02192d718bd6732cO7wLu3LbsMBVWhJ[] = {
/* columns rows colors chars-per-pixel */
"64 64 249 2 ",
"   c None",
".  c #3B0011",
"X  c #0D2900",
"o  c #3B262A",
"O  c #231909",
"+  c #49021F",
"@  c #730306",
"#  c #523618",
"$  c #753515",
"%  c #7D3A13",
"&  c #793813",
"*  c #733614",
"=  c #540025",
"-  c #49282B",
";  c #57262B",
":  c #5A382C",
">  c #5B3B33",
",  c #4D2C31",
"<  c #623D35",
"1  c #004902",
"2  c #085006",
"3  c #2E4B0F",
"4  c #006D07",
"5  c #007304",
"6  c #007C18",
"7  c #1A6516",
"8  c #057D23",
"9  c #176929",
"0  c #4D4F13",
"q  c #784A19",
"w  c #674638",
"e  c #725125",
"r  c #4F692E",
"t  c #6B6124",
"y  c #735548",
"u  c #644442",
"i  c #736A49",
"p  c #8B0900",
"a  c #B40001",
"s  c #873400",
"d  c #823E14",
"f  c #8A3A14",
"g  c #94350D",
"h  c #AC3D14",
"j  c #B43C20",
"k  c #D6000F",
"l  c #E6052F",
"z  c #C83A26",
"x  c #D33D2F",
"c  c #C03D00",
"v  c #9A4708",
"b  c #844215",
"n  c #8A4316",
"m  c #8B461A",
"M  c #89451C",
"N  c #944A1A",
"B  c #9B4E1B",
"V  c #944618",
"C  c #9D511D",
"Z  c #815C16",
"A  c #B55900",
"S  c #A3531D",
"D  c #AA561C",
"F  c #AC5B1D",
"G  c #A4551A",
"H  c #B35B1D",
"J  c #B95C1D",
"K  c #A84D0A",
"L  c #BA651C",
"P  c #B4680C",
"I  c #954C25",
"U  c #8A5628",
"Y  c #985628",
"T  c #874724",
"R  c #A25621",
"E  c #A55A22",
"W  c #AB5D22",
"Q  c #A65B2B",
"!  c #B55D23",
"~  c #A04924",
"^  c #986534",
"/  c #AD6224",
"(  c #A9652B",
")  c #B36524",
"_  c #B66927",
"`  c #BA6B25",
"'  c #BB6D29",
"]  c #B66526",
"[  c #BE712B",
"{  c #B76B33",
"}  c #BD7135",
"|  c #B97838",
" . c #A87132",
".. c #CF5801",
"X. c #C36B00",
"o. c #C46800",
"O. c #D67B07",
"+. c #C46C13",
"@. c #C34922",
"#. c #CC6C22",
"$. c #C36A23",
"%. c #C2742D",
"&. c #C6792E",
"*. c #C97829",
"=. c #D67628",
"-. c #C27634",
";. c #C67A31",
":. c #C97D32",
">. c #C3793B",
",. c #ED7800",
"<. c #E03F43",
"1. c #9A6743",
"2. c #B16F4B",
"3. c #A45D48",
"4. c #CD7249",
"5. c #E76469",
"6. c #008A05",
"7. c #03BA03",
"8. c #00A804",
"9. c #03962A",
"0. c #088D25",
"q. c #24982E",
"w. c #07A837",
"e. c #10B036",
"r. c #26AA37",
"t. c #2AB63E",
"y. c #35B03A",
"u. c #43953B",
"i. c #689A00",
"p. c #00C902",
"a. c #00D901",
"s. c #00E804",
"d. c #00FF05",
"f. c #04CD2F",
"g. c #24CA39",
"h. c #00B044",
"j. c #31BC42",
"k. c #4DB64E",
"l. c #7ABF4F",
"z. c #65A75F",
"x. c #14CD4D",
"c. c #3CCC4A",
"v. c #36C746",
"b. c #3DD14C",
"n. c #32D149",
"m. c #2CD758",
"M. c #3DD654",
"N. c #26CF41",
"B. c #27F059",
"V. c #43D452",
"C. c #4AD556",
"Z. c #4DDB5C",
"A. c #49D858",
"S. c #52DB5D",
"D. c #57D95B",
"F. c #48CD50",
"G. c #64CF54",
"H. c #53E45E",
"J. c #54DC61",
"K. c #5BDA64",
"L. c #59C860",
"P. c #64D669",
"I. c #59E265",
"U. c #5EE973",
"Y. c #76EA7D",
"T. c #67E46F",
"R. c #BB8335",
"E. c #B18600",
"W. c #D68704",
"Q. c #D48A12",
"!. c #E58E05",
"~. c #F4A516",
"^. c #DC832C",
"/. c #CD8A3D",
"(. c #CA8338",
"). c #D38434",
"_. c #D78A39",
"`. c #DC943B",
"'. c #CC832D",
"]. c #E1832E",
"[. c #E38A2F",
"{. c #E48C31",
"}. c #E3953B",
"|. c #EB9D3B",
" X c #E89636",
".X c #E69328",
"XX c #DBA532",
"oX c #EDA43A",
"OX c #F0B435",
"+X c #F6C335",
"@X c #D3D110",
"#X c #B48A4F",
"$X c #B9A87B",
"%X c #CB8B42",
"&X c #D59443",
"*X c #D79848",
"=X c #CE9451",
"-X c #D8A45D",
";X c #EBA543",
":X c #EDAA45",
">X c #EBAA4B",
",X c #EEB34B",
"<X c #F1B547",
"1X c #F2BC52",
"2X c #F0B650",
"3X c #EEB354",
"4X c #D1976F",
"5X c #DBAC6B",
"6X c #E3B56F",
"7X c #E29F45",
"8X c #8DDE4B",
"9X c #91CD72",
"0X c #ABDF47",
"qX c #F4C34A",
"wX c #EAC559",
"eX c #F4C55B",
"rX c #F6CB5D",
"tX c #F5C755",
"yX c #F7D15B",
"uX c #F5CC62",
"iX c #F9D66A",
"pX c #FADA6E",
"aX c #F8D365",
"sX c #FADA71",
"dX c #F8D978",
"fX c #ECC56D",
"gX c #3043D2",
"hX c #7AF085",
"jX c #B8AB93",
"kX c #9FA388",
"lX c #CC9B84",
"zX c #D9AC95",
"xX c #ECB988",
"cX c #EDB4B4",
"vX c #9ADA83",
"bX c #96CE80",
"nX c #A9DA87",
"mX c #84F58D",
"MX c #88FC94",
"NX c #92FB98",
"BX c #8CEA88",
"VX c #9FDFA6",
"CX c #EFD38A",
"ZX c #F9E294",
"AX c #DAC8BB",
"SX c #F1D8B2",
"DX c #EDD7CE",
"FX c #F8E6D6",
"GX c #FAEFEA",
/* pixels */
"gXgXgXgXgXgXgXgXgXgXgXgXgXgXgXgXgXgXgXgXgXgXgXgXgXgXgXgXgXgXgXgXgXgXgXgXgXgXgXgXgXgXgXgXgXgXgXgXgXgXgXgXgXgXgXgXgXgXgXgXgXgXgXgX",
"gXgXgXgXgXgXgXgXgXgXgXgXgXgXgXgXgXgXgXgXgXgXgXgXgXgXgXgXgXgXgXgXgXgXgXgXgXgXgXgXgXgXgXgXgXgXgXgXgXgXgXgXgXgXgXgXgXgXgXgXgXgXgXgX",
"gXgXgXgXgXgXgXgXgXgXgXgXgXgXgXgXgXgXgXgXgXgXgXgXgXgXgXgXgXgXgXgXgXgXgXgXgXgXgXgXgXgXgXgXgXgXgXgXgXgXgXgXgXgXgXgXgXgXgXgXgXgXgXgX",
"gXgXgXgXgXgXgXgXgXgXgXgXgXgXgXgXgXgXgXgXgXgXgXgXgXgXgXgXgXgXgXgXgXgXgXgXgXgXgXgXgXgXgXgXgXgXgXgXgXgXgXgXgXgXgXgXgXgXgXgXgXgXgXgX",
"gXgXgXgXgXgXgXgXgXgXgXgXgXgXgXgXgXgXgXgXgXgXgXgXgXgXgXgXgXgXgXgXgXgXgXgXgXgXgXgXgXgXgXgXgXgXgXgXgXgXgXgXgXgXgXgXgXgXgXgXgXgXgXgX",
"gXgXgXgXgXgXgXgXgXgXgXgXgXgXgXgXgXgXgXgXgXgXgXgXgXgXgXgXgXgXgXgXgXgXgXgXgXgXgXgXgXgXgXgXgXgXgXgXgXgXgXgXgXgXgXgXgXgXgXgXgXgXgXgX",
"gXgXgXgXgXgXgXgXgXgXgXgXgXgXgXgXgXgXgXgXgXgXgXgXgXgXgXgXgXgXgXgXgXgXgXgXgXgXgXgXgXgXgXgXgXgXgXgXgXgXgXgXgXgXgXgXgXgXgXgXgXgXgXgX",
"gXgXgXgXgXgXgXgXgXgXgXgXgXgXgXgXgXgXgXgXgXgXgXgXgXgXgXgXgXgXgXgXgXgXgXgXgXgXgXgXgXgXgXgXgXgXgXgXgXgXgXgXgXgXgXgXgXgXgXgXgXgXgXgX",
"gXgXgXgXgXgXgXgXgXgXgXgXgXgXgXgXgXgXgXgXgXgXgXgXgXgXgXgXGXGXDXzXzXSXFXGXgXgXgXgXgXgXgXgXgXgXgXgXgXgXgXgXgXgXgXgXgXgXgXgXgXgXgXgX",
"gXgXgXgXgXgXgXgXgXgXgXgXgXgXgXgXgXgXgXgXgXgXgXgXgXSXCX4X:.o.o.o.o.o.O.O.-XxXFXgXgXgXgXgXgXgXgXgXgXgXgXgXgXgXgXgXgXgXgXgXgXgXgXgX",
"gXgXgXgXgXgXgXgXgXgXgXgXgXgXgXgXgXgXgXgXgXgX;X].O.W.`.*X=.>.>.-.} >.=X4X=XQ.W.!.|.fXgXgXgXgXgXgXgXgXgXgXgXgXgXgXgXgXgXgXgXgXgXgX",
"gXgXgXgXgXgXgXgXgXgXgXgXgXgXgXgXgXgXgXgX!.!..X X;X-X6X5X;.).;.*.%.{ } | | | } -.-.=.Q.W.gXgXgXgXgXgXgXgXgXgXgXgXgXgXgXgXgXgXgXgX",
"gXgXgXgXgXgXgXgXgXgXgXgXgXgXgXgXgXgXgX<X>X,X:X:X|.}.^.^._.^.:.:.%._ F G F / ' ' [ } (.%X'.gXgXgXgXgXgXgXgXgXgXgXgXgXgXgXgXgXgXgX",
"gXgXgXgXgXgXgXgXgXgXgXgXgXgXgXgXgXgXOX1X1X1X2X>X:X:X|.|.}.).:.%.` ) / Q G / / / ) _ ' %.;.*.yXgXgXgXgXgXgXgXgXgXgXgXgXgXgXgXgXgX",
"gXgXgXgXgXgXgXgXgXgXgXgXgXgXgXgXOXOX1XtX1X1X2X1X2X:X7X}.`.).:.%.' ) / E Y C / / / ) ' [ %.;.%.Q.gXgXgXgXgXgXgXgXgXgXgXgXgXgXgXgX",
"gXgXgXgXgXgXgXgXgXgXgXgXgXgXgXOXOXuXuXrXuXaXuXuX1X3X:X}.`.).:.%.' ) / / F E Y E S / / _ [ [ [ ' W.gXgXgXgXgXgXgXgXgXgXgXgXgXgXgX",
"gXgXgXgXgXgXgXgXgXgXgXgXgXgX+XyXiXiXiXpXsXpXaXeX1X>X;X;X&X(.:.%.[ ) ( / W E E C B Y W / ' [ [ (.%.X.gXgXgXgXgXgXgXgXgXgXgXgXgXgX",
"gXgXgXgXgXgXgXgXgXgXgXgXgX+XyXsXiXpXsXpXpXiXuXeX2X3XfXCXfX`.).:.&.%.[ ) / W C C G F W / ' [ L -XdX=XQ.gXgXgXgXgXgXgXgXgXgXgXgXgX",
"gXgXgXgXgXgXgXgXgXgXgXgXgXqXpXpXdXfXiXpXpXaXrXwXuXZXZXCX6X`.`._.).:.%.[ _ / S G v K / / / _ ' F #XCXwXgXgXgXgXgXgXgXgXgXgXgXgXgX",
"gXgXgXgXgXgXgXgXgXgXgXgXgXyXpXdXCXrXpXiXiXiXaXeXrX6X-X&X_.}.}._.).:.[ [ ' / F | =X%XF G Y / ) [ A | -X^.gXgXgXgXgXgXgXgXgXgXgXgX",
"gXgXgXgXgXgXgXgXgXgXgXgX<XsXpXZX6XpXsXsXpXpXpXaXeX<X>X;X;X}.}._.(.%.%.[ _ / v =XCXZX6Xv R W ) _ -.$.-.O.gXgXgXgXgXgXgXgXgXgXgXgX",
"gXgXgXgXgXgXgXgXgXgXgXgXqXpXpX-XwXsXsXpXpXpXiXaXuXuXeX,X;X7X{.:.%.[ ' _ ) F N B #X6X-Xv S / / _ ' %.%.` gXgXgXgXgXgXgXgXgXgXgXgX",
"gXgXgXgXgXgXgXgXgXgXgX~.rXaXuXwXpXpXpXpXpXaXuXrXeX1X1X>X;X}._.:.*.%.' ' _ / B V s s % n N B E / _ [ [ | ..gXgXgXgXgXgXgXgXgXgXgX",
"gXgXgXgXgXgXgXgXgXgXgX~.rXyXyXaXaXiXiXiXaXaXrXeX1X,X:X;X}.{.^.:.*.*.%.[ ' _ W B m d q n d n B W ) ) ) _ K gXgXgXgXgXgXgXgXgXgXgX",
"gXgXgXgXgXgXgXgXgXgXgX!.tXtXyXyXyXyXyXrXtXtXtX1X<X:X|. X{.].=.*.*.$.$.[ ' _ F C V b d % d d m C E W W ) A gXgXgXgXgXgXgXgXgXgXgX",
"gXgXgXgXgXgXgXgXgXgXgX,.,XqXqXqXqXtXqX<X<XoX<X:X:X|. X].].=.*.#.` ` ] _ ) W S N n d d % % d d I I R W Q v gXgXgXgXgXgXgXgXgXgXgX",
"gXgXgXgXgXgXgXgXgXgXgX..|.:XOX<X<X<XOXoX|.oX|.|.|. X{.=.=.#.$.` ] ) ) ) / S N n n b d % & d b m N I Y Q g gXgXgXgXgXgXgXgXgXgXgX",
"gXgXgXgXgXgXgXgXgXgXgX..=.].|.oXOXoX X X X X X X X{.{.=.#.$.! ! H ! F W F C N V M d b d % % d m m m N ~ s gXgXgXgXgXgXgXgXgXgXgX",
"gXgXgXgXgXgXgXgXgXgXgXgX+.#.=.^.{.{.=.=.{.{. X X{.=.=.#.$.J J H F S S G G Y N V M % d b & $ & d n V N Y p gXgXgXgXgXgXgXgXgXgXgX",
"gXgXgXgXgXgXgXgXgXgXgXgXg $.$.#.#.=.#.#.=.=.{.=.{.{.=.#.@.J D D S G C B N m n M f % & & & $ & d n n m I s gXgXgXgXgXgXgXgXgXgXgX",
"gXgXgXgXgXgXgXgXgXgXgXgX@ $.@.J J J H H #.$.#.=.=.=.=.#.+.H D S B B N N n f b q $ $ $ $ $ $ & d n m T s @ gXgXgXgXgXgXgXgXgXgXgX",
"gXgXgXgXgXgXgXgXgXgXgXgX  Z A K K ~ I f g h ~ D @.#.+.@.D G B B N N V n n d d & * * * $ $ d e M s s g 1.CXgXgXgXgXgXgXgXgXgXgXgX",
"gXgXgXgXgXgXgXgXgXgXgXgXL.V.9X2.3.p p s f f f V h ~ K ~ S C S B B N V n f d % & $ $ & & & s @ s 3.#XL.F.VXgXgXgXgXgXgXgXgXgXgXgX",
"gXgXgXgXgXgXgXgXgXgXgXgX8.mXMXzXDXAXjX3.m V n V N C R G H H H H H D D C m m b q d d d n T ^ jXAXcXnXNXL.y.gXgXgXgXgXgXgXgXgXgXgX",
"gXgXgXgXgXgXgXgXgXgXgXgXh.NXBXBXlXcXGXcX5.<.x z z @.H J ! ! H L L J D Y B h j j z z x <.5.cXFXcX$XmXNXmXkXgXgXgXgXgXgXgXgXgXgXgX",
"gXgXgXgXgXgXgXgXgXgXgXx.B.9XT.S.@X`.lXzXzX4.l l k k k k a p @ ; : : @ p a a k k l l l 4.lXzXlXXX@XD.P.hXhXz.gXgXgXgXgXgXgXgXgXgX",
"gXgXgXgXgXgXgXgXgXgXf.U.S.b.N.D.0X8XG.D.n.b.G.9X9XvXnXvXbX9Xz.; = = i 9XbXvXvXvX9X9X8Xj.x.b.D.8X0XD.N.c.K.I.g.Y.gXgXgXgXgXgXgXgX",
"gXgXgXgXgXgXgXgXa.s.I.V.c.v.C.Z.x.m.A.Z.b.c.n.I.hXNXhXmXNXMXhXk.u.y.T.mXMXMXhXMXhXU.m.c.V.S.Z.m.m.S.A.c.n.V.I.g.g.gXgXgXgXgXgXgX",
"gXgXgXgXgXgXs.s.S.I.A.b.b.H.I.Z.D.D.A.J.c.b.C.I.L.y.7 0.L.hXT.Z.v.V.T.Y.P.q.4 9 k.P.S.V.g.D.S.C.D.H.I.J.C.n.A.I.Z.f.f.gXgXgXgXgX",
"gXgXgXgXgXs.H.D.C.C.V.M.x.h.e.F.J.M.b.D.V.V.A.y.X . ; - X j.K.A.b.V.D.D.5 + : = O 6 F.V.V.S.F.c.J.C.q.h.e.g.V.Z.A.K.Z.7.gXgXgXgX",
"gXgXgXgXp.J.D.c.C.S.a.p.7. .* 9.V.c.c.Z.V.F.0.X - : : w ; 1 v.A.V.V.A.9.. w > : : + 2 t.V.A.V.c.A.e.# R.jXz.8.B.S.V.D.Z.8.gXgXgX",
"gXgXgXgXp.J.Z.A.d.p.gXgXgX3X .9.v.v.v.C.v.0.O < w > > > w , r.Z.b.A.V.7 < w > > > u > 2 q.F.V.g.c.e.r XXgXgXgX6.f.C.C.C.5 gXgXgX",
"gXgXgXgX7.a.a.p.s.gXgXgXgXXXi w.v.t.v.v.q.1 u y y w w y i u 0.Z.V.A.F.3 i y w w u y y o 4 r.c.v.t.g.8 R.gXgXgXgXH.6.6.5 w.gXgXgX",
"gXgXgXgXgXgXgXgXgXgXgXgXgXi.r t.j.v.v.y.4 # w : , - o o > , 8 D.V.Z.j.2 , , - o , : : U 3 0.y.v.y.F.w.^ gXgXgXgXgXgXgXgXgXgXgXgX",
"gXgXgXgXgXgXgXgXgXgXgXgXgXt 7 9.e.e.9.4 3 %X(.| }  .( Y e q 3 e.C.c.0.# I Y (  .R.R.(.*X| 1 5 9.e.9.5 gXgXgXgXgXgXgXgXgXgXgXgXgX",
"gXgXgXgXgXgXgXgXgXgXgXgXgXgXC t 0 3 0 t %X*X*X*X&X&X&X&X&X_.{ 2 8 8 0 /._.&X&X&X&X*X*X*X*X#Xe t 3 e v gXgXgXgXgXgXgXgXgXgXgXgXgX",
"gXgXgXgXgXgXgXgXgXgXgXgXgXgXE./.%.[ (./.&X/.%X&X&X%X/.%X%X(./.| e U )././././.%X/././././.&X).-.%./.X.gXgXgXgXgXgXgXgXgXgXgXgXgX",
"gXgXgXgXgXgXgXgXgXgXgXgXgXgXP >.&.%.[ [ (.(.(.(.:.:.:.:.:.:.;.:.:.:.:.;.:.:.;.;.(.(.(.'.'.%.` [ -.L '.gXgXgXgXgXgXgXgXgXgXgXgXgX",
"gXgXgXgXgXgXgXgXgXgXgXgXgXgXE.A | } _ / _ ' ' %.%.-.;.;.:.:.:.;.&.;.:.;.;.;.;.%.%.[ [ ` _ ! ` >.} gXgXgXgXgXgXgXgXgXgXgXgXgXgXgX",
"gXgXgXgXgXgXgXgXgXgXgXgXgXgXgXgXA P -.' D D F ) ` ' %.%.%.&.&.&.%.;.&.%.&.%.%.' ` ) F D D { -.A P gXgXgXgXgXgXgXgXgXgXgXgXgXgXgX",
"gXgXgXgXgXgXgXgXgXgXgXgXgXgXgXgXgX&XA [ } ' W W ! ) ` ` [ [ %.%.%.%.%.%.[ ' ' ) / W F _ } X.A gXgXgXgXgXgXgXgXgXgXgXgXgXgXgXgXgX",
"gXgXgXgXgXgXgXgXgXgXgXgXgXgXgXgXgXgXgX4.A +.%.' { { } -.-.%.' ` ) _ ' %.-.-.-.} { ' *.X.A ).gXgXgXgXgXgXgXgXgXgXgXgXgXgXgXgXgXgX",
"gXgXgXgXgXgXgXgXgXgXgXgXgXgXgXgXgXgXgXgXgX=X(.X.X.X.o.o.o.` ` ) / ) ` L X.o.A X.X.*.).].gXgXgXgXgXgXgXgXgXgXgXgXgXgXgXgXgXgXgXgX",
"gXgXgXgXgXgXgXgXgXgXgXgXgXgXgXgXgXgXgXgXgXgXgXgXxX6X4X4X4X4.'  .( { } >.;.^.gXgXgXgXgXgXgXgXgXgXgXgXgXgXgXgXgXgXgXgXgXgXgXgXgXgX",
"gXgXgXgXgXgXgXgXgXgXgXgXgXgXgXgXgXgXgXgXgXgXgXgXgXgXgXgXgXgXgXgXgXgXgXgXgXgXgXgXgXgXgXgXgXgXgXgXgXgXgXgXgXgXgXgXgXgXgXgXgXgXgXgX",
"gXgXgXgXgXgXgXgXgXgXgXgXgXgXgXgXgXgXgXgXgXgXgXgXgXgXgXgXgXgXgXgXgXgXgXgXgXgXgXgXgXgXgXgXgXgXgXgXgXgXgXgXgXgXgXgXgXgXgXgXgXgXgXgX",
"gXgXgXgXgXgXgXgXgXgXgXgXgXgXgXgXgXgXgXgXgXgXgXgXgXgXgXgXgXgXgXgXgXgXgXgXgXgXgXgXgXgXgXgXgXgXgXgXgXgXgXgXgXgXgXgXgXgXgXgXgXgXgXgX",
"gXgXgXgXgXgXgXgXgXgXgXgXgXgXgXgXgXgXgXgXgXgXgXgXgXgXgXgXgXgXgXgXgXgXgXgXgXgXgXgXgXgXgXgXgXgXgXgXgXgXgXgXgXgXgXgXgXgXgXgXgXgXgXgX",
"gXgXgXgXgXgXgXgXgXgXgXgXgXgXgXgXgXgXgXgXgXgXgXgXgXgXgXgXgXgXgXgXgXgXgXgXgXgXgXgXgXgXgXgXgXgXgXgXgXgXgXgXgXgXgXgXgXgXgXgXgXgXgXgX",
"gXgXgXgXgXgXgXgXgXgXgXgXgXgXgXgXgXgXgXgXgXgXgXgXgXgXgXgXgXgXgXgXgXgXgXgXgXgXgXgXgXgXgXgXgXgXgXgXgXgXgXgXgXgXgXgXgXgXgXgXgXgXgXgX",
"gXgXgXgXgXgXgXgXgXgXgXgXgXgXgXgXgXgXgXgXgXgXgXgXgXgXgXgXgXgXgXgXgXgXgXgXgXgXgXgXgXgXgXgXgXgXgXgXgXgXgXgXgXgXgXgXgXgXgXgXgXgXgXgX",
"gXgXgXgXgXgXgXgXgXgXgXgXgXgXgXgXgXgXgXgXgXgXgXgXgXgXgXgXgXgXgXgXgXgXgXgXgXgXgXgXgXgXgXgXgXgXgXgXgXgXgXgXgXgXgXgXgXgXgXgXgXgXgXgX",
"gXgXgXgXgXgXgXgXgXgXgXgXgXgXgXgXgXgXgXgXgXgXgXgXgXgXgXgXgXgXgXgXgXgXgXgXgXgXgXgXgXgXgXgXgXgXgXgXgXgXgXgXgXgXgXgXgXgXgXgXgXgXgXgX",
"gXgXgXgXgXgXgXgXgXgXgXgXgXgXgXgXgXgXgXgXgXgXgXgXgXgXgXgXgXgXgXgXgXgXgXgXgXgXgXgXgXgXgXgXgXgXgXgXgXgXgXgXgXgXgXgXgXgXgXgXgXgXgXgX"
};
