/* XPM */
static char *_91722e1fa6f4729868bae5a66717a81CPny4zrDbAFdnwYi[] = {
/* columns rows colors chars-per-pixel */
"64 64 243 2 ",
"   c #007A00",
".  c #006A36",
"X  c #196D36",
"o  c #267B39",
"O  c #377C3A",
"+  c #62602A",
"@  c #397B46",
"#  c #B7153A",
"$  c #CD0500",
"%  c #DB0000",
"&  c #C91600",
"*  c #EA0000",
"=  c #E11E00",
"-  c #D72A00",
";  c #CC3200",
":  c #D83D00",
">  c #E22B00",
",  c #E63900",
"<  c #BF5200",
"1  c #B17309",
"2  c #965A21",
"3  c #B35432",
"4  c #B86A31",
"5  c #D34E06",
"6  c #E94702",
"7  c #E85503",
"8  c #F25802",
"9  c #C86603",
"0  c #D96600",
"q  c #C87E00",
"w  c #D66619",
"e  c #F06E08",
"r  c #C94C2F",
"t  c #CA5527",
"y  c #D25D29",
"u  c #D95435",
"i  c #EB4B2D",
"p  c #E6582A",
"a  c #F25831",
"s  c #CD652A",
"d  c #D2642B",
"f  c #D46C2C",
"g  c #DC6829",
"h  c #DB732C",
"j  c #D8772C",
"k  c #C86938",
"l  c #D86934",
"z  c #C87030",
"x  c #D57332",
"c  c #DB7432",
"v  c #DB7C34",
"b  c #D77A38",
"n  c #E76A28",
"m  c #F46B28",
"M  c #E8792C",
"N  c #F5712F",
"B  c #E66634",
"V  c #E77837",
"C  c #F47836",
"Z  c #A95764",
"A  c #B6716E",
"S  c #C95A47",
"D  c #C95450",
"F  c #C96757",
"G  c #D27454",
"H  c #E86B4D",
"J  c #E87B43",
"K  c #D0716B",
"L  c #008000",
"P  c #008B00",
"I  c #009400",
"U  c #009900",
"Y  c #1F9A0E",
"T  c #2A9908",
"R  c #279817",
"E  c #188735",
"W  c #2D992E",
"Q  c #29893D",
"!  c #34893D",
"~  c #379738",
"^  c #7D9E00",
"/  c #4D9C3B",
"(  c #6A903C",
")  c #729636",
"_  c #48A23E",
"`  c #048B43",
"'  c #258D43",
"]  c #3A8B42",
"[  c #2B9142",
"{  c #3A9644",
"}  c #459C45",
"|  c #499E44",
" . c #459C4A",
".. c #539B47",
"X. c #4D9353",
"o. c #699746",
"O. c #4AA344",
"+. c #45A448",
"@. c #55A346",
"#. c #59A357",
"$. c #61A553",
"%. c #60906E",
"&. c #72A472",
"*. c #B18B00",
"=. c #85A209",
"-. c #96AB00",
";. c #9EB200",
":. c #A6B500",
">. c #849F3D",
",. c #B8882D",
"<. c #90A82C",
"1. c #96AA3C",
"2. c #A4B52E",
"3. c #AAB83A",
"4. c #D18800",
"5. c #F28F11",
"6. c #F4A410",
"7. c #D08D25",
"8. c #DD8437",
"9. c #E8862B",
"0. c #F6832D",
"q. c #F0952A",
"w. c #E38434",
"e. c #EB8432",
"r. c #E7883A",
"t. c #F68737",
"y. c #EB9639",
"u. c #ED943B",
"i. c #F69234",
"p. c #F89735",
"a. c #F39538",
"s. c #F39B3C",
"d. c #FA9C3A",
"f. c #DEA03B",
"g. c #F9A627",
"h. c #FAA734",
"j. c #F7A43E",
"k. c #FBA43D",
"l. c #FCAA3D",
"z. c #B5C10A",
"x. c #B7C23C",
"c. c #B5954F",
"v. c #88A64E",
"b. c #ADB253",
"n. c #AF916C",
"m. c #9BB266",
"M. c #B3B26E",
"N. c #D9874A",
"B. c #DB9449",
"V. c #D78C58",
"C. c #F48E41",
"Z. c #EB9343",
"A. c #EB9943",
"S. c #E79848",
"D. c #F39D46",
"F. c #C9A44E",
"G. c #EDA44E",
"H. c #F5A343",
"J. c #FAA543",
"K. c #FCAB42",
"L. c #F4A44B",
"P. c #F8A74A",
"I. c #FBAD4B",
"U. c #FDB24D",
"Y. c #FBB84E",
"T. c #ECA856",
"R. c #F5AB52",
"E. c #FAAE52",
"W. c #FBB353",
"Q. c #FBB65D",
"!. c #F2BB5A",
"~. c #FCBA5B",
"^. c #D4906D",
"/. c #DCA56E",
"(. c #E4AE6A",
"). c #FCBC67",
"_. c #3645CA",
"`. c #A07B91",
"'. c #738AB9",
"]. c #32AADF",
"[. c #5E96CC",
"{. c #6894C8",
"}. c #7D96C6",
"|. c #6DA6D5",
" X c #5FBBE2",
".X c #72B6E3",
"XX c #7DC3E8",
"oX c #AD868D",
"OX c #BB9688",
"+X c #98B191",
"@X c #B7A694",
"#X c #988AAA",
"$X c #A599AC",
"%X c #B1B2AD",
"&X c #A7A5B9",
"*X c #BBA9B3",
"=X c #D19187",
"-X c #C89D9B",
";X c #D5AB85",
":X c #C4A694",
">X c #CEB2B2",
",X c #E8B8B5",
"<X c #8499C6",
"1X c #859BCB",
"2X c #8B9DCA",
"3X c #8BA3C9",
"4X c #8CA2CB",
"5X c #92A5CC",
"6X c #97A8C9",
"7X c #8BA5D3",
"8X c #88A8D6",
"9X c #93AAD3",
"0X c #9AADD2",
"qX c #91B1D4",
"wX c #9DB2D3",
"eX c #94B3DD",
"rX c #9CB3DA",
"tX c #98B8D9",
"yX c #A2ACCA",
"uX c #B2AFC8",
"iX c #A7B5CB",
"pX c #B6B6C3",
"aX c #A8B7D6",
"sX c #A4BBDC",
"dX c #9AB6E0",
"fX c #A4BDE2",
"gX c #A3C6DC",
"hX c #B7C6DB",
"jX c #97C8E6",
"kX c #99D7F3",
"lX c #ABC5E5",
"zX c #B7CBE6",
"xX c #A8DBF5",
"cX c #DBC9C8",
"vX c #C0CADD",
"bX c #E4D2D1",
"nX c #C8D4E7",
"mX c #D5DCEC",
"MX c #DBDEE8",
"NX c #CAE6F9",
"BX c #E7E9EC",
"VX c #E8EAF2",
"CX c #F9F9F9",
/* pixels */
"_._._._._._._._._._._._._._._._._._._._._._._._._._._._._._._._._._._._._._._._._._._._._._._._._._._._._._._._._._._._._._._._.",
"_._._._._._._._._._._._._._._._._._._._._._._._._._._._._._.%X_._._._._._._._._._._._._._._._._._._._._._._._._._._._._._._._._.",
"_._._._._._._._._._._._._._._._._._._._._._._._._._._._._._.$._._._._._._._._._._._._._._._._._._._._._._._._._._._._._._._._._.",
"_._._._._._._._._._._._._._._._._._._._._._._._._._._._._._.U _._._._._._._._._._._._._._._._._._._._._._._._._._._._._._._._._.",
"_._._._._._._._._._._._._._._._._._._._._._._._._._._._._._.I _._._._._._._._._._._._._._._._._._._._._._._._._._._._._._._._._.",
"_._._._._._._._._._._._._._._._._._._._._._._._._._._._._._.U _._._._._._._._._._._._._._._._._._._._._._._._._._._._._._._._._.",
"_._._._._._._._._._._._._._._._._._._._._._._._.&._._._._._.U _._._._._._._._._._._._._._._._._._._._._._._._._._._._._._._._._.",
"_._._._._._._._._._._._._._._._._._._._._._._._._.@._._._._.W _._._._._._._._._._._._._._._._._._._._._._._._._._._._._._._._._.",
"_._._._._._._._._._._._._._._._._._._._._._._._._.P _._._.X./ _._._._._._._._._._._._._._._._._._._._._._._._._._._._._._._._._.",
"_._._._._._._._._._._._._._._._._._._._._.) _._._.P _._._.} _ #._._.-._._._._.P _._._._._._._._._._._._._._._._._._._._._._._._.",
"_._._._._._._._._._._._._._._._._._._._._.^ _._._.R [ _._.~ +.#._._.;._._._._.U _._._._._._._._._._._._._._._._._._._._._._._._.",
"_._._._._._._._._._._._._._._._._._._._._._.=._._./ P _._.R +.#._.2.;._._._.R W _._._._._._._._._._._._._._._._._._._._._._._._.",
"_._._._._._._._._._._._._._._._._._._._._._.;._._.&.Y &._.[ O.{ o.x.;._._.+.@.W _._._._._._._._._._._._._._._._._._._._._._._._.",
"_._._._._._._._._._._._._._._._._._._._._._.b.;._._.U  .+X+.O.[ ) x.;._._.T +._._._._._._._._._._._._._._._._._._._._._._._._._.",
"_._._._._._._._._._._._._._._._._._._._._._._.:.m._.~ O.@ { | ' 1.z.M._.W @.Y _._._._._._._._._._._._._._._._._._._._._._._._._.",
"_._._._._._._._._._._._._._._._._._._._._._._.:.2.&.X.O.o } | ' 1.z.+X&.~ @.+._._._._._._._._._._._._._._._._._._._._._._._._._.",
"_._._._._._._._._._._._._._._._._._._._._._._.1.3.<.E +.' } } ' 1.3.X.} | | X.=._._._._._._._._._._._._._._._._._._._._._._._._.",
"_._._._._._._._._._._._._._._._._._._._.] _._._.-.b.o.{ ! ] } ] 1.) Q | | ` ) =._._._._._._._._._._._._._._._._._._._._._._._._.",
"_._._._._._._._._._._._._._._._._._._._._.P _._.v.2.>.[ ! ] } ~ ) } +. .' ( :._._._._._._._._._._._._._._._._._._._._._._._._._.",
"_._._._._._._._._._._._._._._._._._._._._._.P _._.<.>.] Q ] { ! O  .} [ O 3.) _._.$._._._._._._._._._._._._._._._._._._._._._._.",
"_._._._._._._._._._._._._._._._._._._._._._.%.P o.( ) @ Q [ ] X { } ] o 3.<.%._.P _._._._._._._._._._._._._._._._._._._._._._._.",
"_._._._._._._._._._._._._._._._._._._._._._._._.L / @.( O O X [  .] O ( o.o.@.P _._._._._._._._._._._._._._._._._._._._._._._._.",
"_._._._._._._._._._._._._._._._._._._._._._._._._.X { Q . . . o . . ] ..T L   _._._._._._._._._._._._._._._._._._._._._._._._._.",
"_._._._._._._._._._._._._._._._._._._._._._._._._._.+ 3 3 3 2 3 3 3 2 @ _._._._._._._._._._._.vXVX_._._._._._._._._._._._._._._.",
"_._._._._._._._._._._._._._._._._._._._._._._._._.g V C.n B u.M B M m r _._._._._._._._._.4X6X0XBX_._._._._._._._._._._._._._._.",
"_._._._._._._._._._._._._._._._._._._._._._._.G : e.D.V h i.a.i.e.h h g 7 G _._._._._._._._.vXzXVX_._._._._._._._._._._._._._._.",
"_._._._._._._._._._._._._._._._._._._._._._.7 m r.f t n d.p.w.a.p.M k l D.e ; _._._._._.VXzXiXhXCX_._._._._._._._._._._._._._._.",
"_._._._._._._._._._._._._._._._._._._._._.: t.i.i.h c c e.p.a.p.M M H.e.g r.N V._._._._.BXnXnXvXCX_._._._._._._._._._._._._._._.",
"_._._._._._._._._._._._._._._._._._._._., Z.i.i.h u.l.j.j w.l.8.w.k.a.p.i.d V e _._._._.VXnXmXmX_._._._._._._._._._._._._._._._.",
"_._._._._._._._._._._._._._._._._._._.= C t.0.f d.l.H.K.K.w.t y.U.W.G.S.J.d.l 3 - _._._.VXnXnXVX_._._._._._._._._._._._._._._._.",
"_._._._._._._._._._._._._._._._._._.3 p t.M x D.I.S.R.~.W.8.8.v L.W.P.L.I.s.g J 5 _._._._._.iXMX_._._._._._._._._._._._._._._._.",
"_._._._._._._._._._._._._._._._._._., B d f h.U.Q.T.Q.E.f S.Y.y.f D.W.W.P.h w.0.e 3 _._._.MXzXmX_._._._._._._._._._._._._._._._.",
"_._._._._._._._._._._._._._._._._.S m C 9 f ^.!.Y.~.L.s y.K.k.K.j.h r.H.h V g.^.wXaX_.hXnXmXfXmX_._._._._._._._._._._._._._._._.",
"_._._._._._._._._._._._._._._._._., C 9 ^.yX<X6XOX9.s s.K.J.l.j.k.J.j w c J.h.V.#X`._.nX_._._._._._._._._._._._._._._._._._._._.",
"_._._._._._._._._._._._._._._._._.8 w ^.4X[.]..XqXA p.H.l.H.y.J.J.U.A.k c D.W.J.5.7 u BX_._._._._._._._._._._._._._._._._._._._.",
"_._._._._._._._._._._._._._._._.> i e *X[. XkXXX}.`.6.U.H.I.S.E.W.L.b U.y.f D.E.D.C & bX_._._._._._._._._._._._._._._._._._._._.",
"_._._._._._._._._._._._._._._._.* l C.yX8XxXxXjX|.oX9 G.~.I.W.W.P.x j.l.K.s.f H.J.l - >X_._._._._._._._._._._._._._._._._._._._.",
"_._._._._._._._._._._._._._._._.& C Z.0XjXxXxXlXqX=Xg.f S.Y.W.I.j s.J.l.l.l.y.f 9.l 8 K _._._._._._._._._._._._._._._._._._._._.",
"_._._._._._._._._._._._._._._._.- C i.$XeXlXhXaX<XB.l.j.j r.I.v y.K.l.s.H.K.K.A.t M m u MX_._._._._._._._._._._._._._._._._._._.",
"_._._._._._._._._._._._._._._.F 6 d M ^.<X7XeX{.n.h.K.J.k.w.t y.K.J.I.S.G.W.W.D.s B C = cX_._._._._._._._._._._._._._._._._._._.",
"_._._._._._._._._._._._._._._.% a 0.f 5 8.OXoXV.q.G.I.P.K.y.k 8.U.U.W.E.I.W.L.G Y.v l - cX_._._._._._._._._._._._._._._._._._._.",
"_._._._._._._._._._._._._._._.$ B 0.V b h g.l.I.R.R.E.~.y.N.!.9.b W.W.W.W.I.c A.l.p.V & >X_._._._._._._._._._._._._._._._._._._.",
"_._._._._._._._._._._._._._._.* C h r.K.8.l L.W.E.E.Y.G.x U.j.K.r.b I.W.I.8.r.K.d.d.t.- -X_._._._._._._._._._._._._._._._._._._.",
"_._._._._._._._._._._._._._._.* u B d.k.l.y.d u.W.Q.G.j H.l.l.l.l.y.x a.9.c K.l.d.a.t., =X_._._._._._._._._._._._._._._._._._._.",
"_._._._._._._._._._._._._._._.% g C p.k.l.l.K.b M y.w j.K.J.H.H.K.K.H.s s J.J.J.Z.e.t.6 A _._._._._._._._._._._._._._._._._._._.",
"_._._._._._._._._._._._._._._.$ N 0.i.s.J.J.K.h.j F V.g.l.I.A.G.~.Q.L.j l Z.W.H.s.a.C.: F _._._._._._._._._._._._._._._._._._._.",
"_._._._._._._._._._._._._._._.* B C i.w.l.H.h.;XiXlXzXpX(.W.Q.).).Q.c D.h.0 5.h.P.P.r.- K _._._._._._._._._._._._._._._._._._._.",
"_._._._._._._._._._._._._._._.$ B 0.p.y.I.W.;XlXeX9X9XlX0X(.).).).w.w.g./.%X&X;XI.R.y 6 F _._._._._._._._._._._._._._._._._._._.",
"_._._._._._._._._._._._._._._.* r C P.R.).G.yX7X9XfXfX2XeXpXY.).S.x g./.aXjXdXqX:Xe u 8 F _._._._._._._._._._._._._._._._._._._.",
"_._._._._._._._._._._._._._._.* i t a.D.5.-X8X1XzXaXaXsX7XsXV.9.s H.g.>XzX|.]. X9XS m , K _._._._._._._._._._._._._._._._._._._.",
"_._._._._._._._._._._._._._._.* a p s M 0 uX7XsXfXaX0XlX0XeX=X0 u.K.y.pXtX XxXjXtX^.8 = =X_._._._._._._._._._._._._._._._._._._.",
"_._._._._._._._._._._._._._._.% i m M y l wX<XaXhXhX0X0X0X8XoX0 I.K.g.yX8XjXNXzXeXK m % ,X_._._._._._._._._._._._._._._._._._._.",
"_._._._._._._._._._._._._._._.% i i V 0 K 0X}.aX6X'.2X5X6XeX*X0 Z.Q.h.$XtXqXgXwXrXS p % _._._._._._._._._._._._._._._._._._._._.",
"_._._._._._._._._._._._._._._.% , p r 5.^.eX<XaX'.uX3X0X2XeX>X6.x D.Y.y.&XlX9XzX-X6 S D _._._._._._._._._._._._._._._._._._._._.",
"_._._._._._._._._._._._._._._.# H G Z.e ;XeX2X0X9X'.5X2X2XeX*X6.A.c W.W.s.oX*X=X8 D Z _._._._._._._._._._._._._._._._._._._._._.",
"_._._._._._._._._._._._._._._._.n.y N.9.=X7X<XaX0X0X2XaX6X8X*X6.U.8.M P.e.7 e e F Z Z _._._._._._._._._._._._._._._._._._._._._.",
"_._._._._._._._._._._._._._._._.c.c.N.7.@XdX<XwXwX0X5XwX5X7X%Xg.E.d.7.n d N C N.n.oX_._._._._._._._._._._._._._._._._._._._._._.",
"_._._._._._._._._._._._._._._._.,.c.B.9 M.aX1XlXsXsXwXwX5XrX@X7.!.f.,.z n M V N./.OX_._._._._._._._._._._._._._._._._._._._._._.",
"_._._._._._._._._._._._._._._._._.q B.c.N.&X}.sXaX0XwXwX2XeX/.q.A.F.V 4 4 ,.N.V.V._._._._._._._._._._._._._._._._._._._._._._._.",
"_._._._._._._._._._._._._._._._._._.c.9 9 rX1XlXwXrXrXrX6X%X/.y.S.F.F.c.k G M._._._._._._._._._._._._._._._._._._._._._._._._._.",
"_._._._._._._._._._._._._._._._._._._._.@XiX2X5X7X7X9X7X%XpXS 4.*.1 1 1 < 2 _._._._._._._._._._._._._._._._._._._._._._._._._._.",
"_._._._._._._._._._._._._._._._._._._._._._._._._._._._._._._._._._._._._._._._._._._._._._._._._._._._._._._._._._._._._._._._.",
"_._._._._._._._._._._._._._._._._._._._._._._._._._._._._._._._._._._._._._._._._._._._._._._._._._._._._._._._._._._._._._._._.",
"_._._._._._._._._._._._._._._._._._._._._._._._._._._._._._._._._._._._._._._._._._._._._._._._._._._._._._._._._._._._._._._._."
};
