/* XPM */
static char *e01fbfd29dfb47d3d88d69e38cd3b674dthYAQr7XKhraF7i[] = {
/* columns rows colors chars-per-pixel */
"64 64 251 2 ",
"   c None",
".  c black",
"X  c #161312",
"o  c #330000",
"O  c #372F1B",
"+  c #262626",
"@  c #393939",
"#  c #101622",
"$  c #500900",
"%  c #741300",
"&  c #4E2C11",
"*  c #6A3505",
"=  c #753500",
"-  c #663915",
";  c #6E2C03",
":  c #553828",
">  c #7B481B",
",  c #764214",
"<  c #777204",
"1  c #794C33",
"2  c #78523D",
"3  c #706D2D",
"4  c #585011",
"5  c #1F434B",
"6  c #474747",
"7  c #735849",
"8  c #78655B",
"9  c #777879",
"0  c #77756A",
"q  c #535F64",
"w  c #AD0900",
"e  c #8C3400",
"r  c #B10725",
"t  c #A01A00",
"y  c #CB0A1A",
"u  c #FB020C",
"i  c #E91129",
"p  c #8B4400",
"a  c #954902",
"s  c #9C5200",
"d  c #894B1A",
"f  c #9F5918",
"g  c #A75A01",
"h  c #A45917",
"j  c #AA5100",
"k  c #887900",
"l  c #8C7C0C",
"z  c #B96502",
"x  c #BC6B1C",
"c  c #A96214",
"v  c #8A542D",
"b  c #867A34",
"n  c #A96322",
"m  c #B86D26",
"M  c #C26C1D",
"N  c #CC730E",
"B  c #CA7524",
"V  c #D27925",
"C  c #C56F21",
"Z  c #D55636",
"A  c #F93443",
"S  c #8F4F49",
"D  c #8A6654",
"F  c #AF7B5D",
"G  c #AB7B61",
"H  c #B16E72",
"J  c #937664",
"K  c #7E807E",
"L  c #989500",
"P  c #928D0C",
"I  c #A59A00",
"U  c #B09B0C",
"Y  c #A7A503",
"T  c #B8A900",
"R  c #B9BA02",
"E  c #B6AF13",
"W  c #959334",
"Q  c #AB992E",
"!  c #A5A729",
"~  c #B7AA28",
"^  c #B8B53A",
"/  c #B7B030",
"(  c #9DA314",
")  c #C8B701",
"_  c #C6B51A",
"`  c #C3AE00",
"'  c #EC9B34",
"]  c #C7B82A",
"[  c #C8B838",
"{  c #D1B12F",
"}  c #E9A738",
"|  c #E9B337",
" . c #EDB22E",
".. c #BDC10F",
"X. c #D7C701",
"o. c #D4CA12",
"O. c #E8D400",
"+. c #EBD010",
"@. c #F9E713",
"#. c #D7C129",
"$. c #D8C83B",
"%. c #D3CA32",
"&. c #FCC829",
"*. c #E9CA38",
"=. c #FBCA36",
"-. c #E5D53C",
";. c #F3DC3C",
":. c #F6D934",
">. c #E5D42C",
",. c #FBE53B",
"<. c #FBE837",
"1. c #F7EC30",
"2. c #90894E",
"3. c #A99C4D",
"4. c #B6AA49",
"5. c #BAB54A",
"6. c #BBB558",
"7. c #ADA650",
"8. c #908E72",
"9. c #BD8666",
"0. c #A59B69",
"q. c #ABAE66",
"w. c #A8A76C",
"e. c #A5A575",
"r. c #B8B578",
"t. c #B6AD6B",
"y. c #C5BB44",
"u. c #C4BD5A",
"i. c #CEB442",
"p. c #EBB349",
"a. c #CA9376",
"s. c #C28B6A",
"d. c #C5BC6C",
"f. c #F0B86C",
"g. c #D69D5E",
"h. c #D6CA46",
"j. c #DCD548",
"k. c #D0CB50",
"l. c #FAC648",
"z. c #E4D342",
"x. c #EDDB44",
"c. c #E8D948",
"v. c #F2DC42",
"b. c #F7DA49",
"n. c #EBD254",
"m. c #EAE34A",
"M. c #F6E244",
"N. c #FAE444",
"B. c #FDEA45",
"V. c #F3E44B",
"C. c #FBE64A",
"Z. c #F5EB4C",
"A. c #FDEC4B",
"S. c #FEF24C",
"D. c #FDF346",
"F. c #FAEB56",
"G. c #FEF452",
"H. c #FFFA54",
"J. c #FFF55B",
"K. c #FFFB5B",
"L. c #F6F052",
"P. c #E8E353",
"I. c #D4CC6B",
"U. c #CBC673",
"Y. c #D4CC76",
"T. c #D2CF6A",
"R. c #FBDA67",
"E. c #ECD869",
"W. c #FAE967",
"Q. c #FFF46C",
"!. c #FEF766",
"~. c #FEF473",
"^. c #FFF47C",
"/. c #FFFC79",
"(. c #EEE571",
"). c #077C9B",
"_. c #437181",
"`. c #3043D2",
"'. c #1E98B5",
"]. c #4F8FA9",
"[. c #6B8EA6",
"{. c #76A3B8",
"}. c #62909B",
"|. c #009DC8",
" X c #00A5C9",
".X c #00A9D7",
"XX c #00B5E0",
"oX c #4EABC5",
"OX c #6BBDDA",
"+X c #00C6F0",
"@X c #24CCF3",
"#X c #65CAEA",
"$X c #878785",
"%X c #969A99",
"&X c #8E958C",
"*X c #A9978E",
"=X c #97A199",
"-X c #A9AB8A",
";X c #B7B78A",
":X c #A8A896",
">X c #B8B596",
",X c #B1AE97",
"<X c #909CAC",
"1X c #8FA7B2",
"2X c #A6A8A7",
"3X c #B6B7A9",
"4X c #AAB7BA",
"5X c #B7BABA",
"6X c #A9AEAB",
"7X c #C4BB8C",
"8X c #E8B6AF",
"9X c #E4A38B",
"0X c #B7C1B4",
"qX c #BEC394",
"wX c #D5D489",
"eX c #C9C895",
"rX c #CECE90",
"tX c #F6D797",
"yX c #E9E486",
"uX c #FCF687",
"iX c #E7E594",
"pX c #FCF597",
"aX c #F2ED95",
"sX c #D0D0AA",
"dX c #F5CDB3",
"fX c #FAEBAD",
"gX c #8FBACC",
"hX c #B5BDC4",
"jX c #ABBEC1",
"kX c #B7C5C8",
"lX c #B9CCD4",
"zX c #A1CDE0",
"xX c #C6C9C8",
"cX c #C6CCD1",
"vX c #C9D4D8",
"bX c #D7D8D9",
"nX c #D1CFCC",
"mX c #E1DCDC",
"MX c #F6CFCB",
"NX c #D8DBE2",
"BX c #CED9E2",
"VX c #DDE5EA",
"CX c #D3E8F4",
"ZX c #E3E3E4",
"AX c #E8EAEB",
"SX c #E4EBF3",
"DX c #E9F1F5",
"FX c #FEFEFE",
"GX c #F6F7F8",
"HX c #F5EDEB",
"JX c #E0E0DF",
/* pixels */
"`.`.`.`.`.`.`.`.`.`.`.`.`.`.`.`.`.`.`.`.`.`.`.`.`.`.`.`.`.`.`.`.`.`.`.`.`.`.`.`.`.`.`.`.`.`.`.`.`.`.`.`.`.`.`.`.`.`.`.`.`.`.`.`.",
"`.`.`.`.`.`.`.`.`.`.`.`.`.`.`.`.`.`.`.`.`.`.`.`.`.`.`.`.`.`.`.`.`.`.`.`.`.`.`.`.`.`.`.`.`.`.`.`.`.`.`.`.`.`.`.`.`.`.`.`.`.`.`.`.",
"`.`.`.`.`.`.`.`.`.`.`.`.`.`.`.`.`.`.`.`.`.`.`.`.`.`.`.`.`.`.`.`.`.`.`.`.`.`.`.`.`.`.`.`.`.`.`.`.`.`.`.`.`.`.`.`.`.`.`.`.`.`.`.`.",
"`.`.`.`.`.`.`.`.`.`.`.`.`.`.`.`.`.`.`.`.`.`.`.`.`.`.`.`.`.`.`.`.`.`.`.`.`.`.`.`.`.`.`.`.`.`.`.`.`.`.`.`.`.`.`.`.`.`.`.`.`.`.`.`.",
"`.`.`.`.`.`.`.`.`.`.`.`.`.`.`.`.`.`.`.`.`.`.`.`.`.`.`.`.`.`.`.`.`.`.`.`.`.`.`.`.`.`.`.`.`.`.`.`.`.`.`.`.`.`.`.`.`.`.`.`.`.`.`.`.",
"`.`.`.`.`.`.`.`.`.`.`.`.q.q.q.q.q.q.fXaXyXq.qXeXeXq.q.aXpXaXiXwXsXrXiXaXpXaXyXwXrXsXwXiXpXuXuXiXrXsXsXrXrXwX`.`.`.`.`.`.`.`.`.`.",
"`.`.`.`.`.`.`.`.`.`.pXQ.^.uXpXpXpXuXQ.K.!./.pXpXpXpX^.J.C.F.~.uX^.Q.!.J.A.A.F.Q.Q.Q.~.!.G.<.G.!./.uXuXuX/./.`.`.`.`.`.`.`.`.`.`.",
"`.`.`.`.`.`.`.`.`.`.;.,.,.B.S.B.<.1.,.N.,.<.<.N.A.,.<.S.C.A.S.B.B.B.B.N.M.V.,.,.,.,.,.B.A.G.C.,.1.,.A.D.D.H.`.`.`.`.`.`.`.`.`.`.",
"`.`.`.`.`.`.`.`.`.`.h.M.L.Z.m.L.G.C.;.;.N.N.M.N.B.C.C.S.A.B.C.B.B.N.B.N.B.B.A.S.A.C.M.v.N.B.B.B.D.Z.H.H.A.*.`.`.`.`.`.`.`.`.`.`.",
"`.`.`.`.`.`.`.`.`.`.#.!.m.! Y %.H.A.;.N.A.A.S.z.^ B.B.L.A.B.v.N.N.C.S.S.A.A.V.h.Z.C.N.B.M.,.N.C.D.m.] P.F.` `.`.`.`.`.`.`.`.`.`.",
"`.`.`.`.`.`.`.`.`.`.yXuXY Y ..m.F.B.;.3 j.K.!.5.+ H.H.c.O m.B.N.B.G.W h.A.G.k.# V.F.b.3 $.C.N.A.L.Y Y iX/.n.`.`.`.`.`.`.`.`.`.`.",
"`.`.`.`.`.`.`.`.`.`.pXJ.k.u.P.!.B.,.B.W < 1.1.! 4 >.1.P 3 H.B.B.A.H.7.4 1.@.` . O.@.] . x.N.A.L.!.(.aXuXD.pX`.`.`.`.`.`.`.`.`.`.",
"`.`.`.`.`.`.`.`.`.`.F.<././.K.Z.,.b.B.o.q sXbXZXAXNXnX9 I D.A.B.A.K.,.X r.sXxXnXnXsX9 k 1.H.H.H.H.K.G.<.B.uX`.`.`.`.`.`.`.`.`.`.",
"`.`.`.`.`.`.`.`.`.`.o.L...j.Z.;.b.<.[ xXFXFXFXFXFXFXFXFXbX6.<.A.H.>.;XZXGXFXFXFXFXFXFXbXr.1.K.H.H.B.B.A.C.o.`.`.`.`.`.`.`.`.`.`.",
"`.`.`.`.`.`.`.`.`.`.Y j.! yXF.,.C.5.NXFXFXGXFXFXFXFXFXFXFXSXq.D.>.3XFXFXFXFXGXFXFXFXFXFXGX,X;.K.G.A.A.B.c.Y `.`.`.`.`.`.`.`.`.`.",
"`.`.`.`.`.`.`.`.`.`.W Z.uX^.D.F.X.xXFXFXFXFXGXjX1X1X5XDXFXFXNXR qXGXFXFXVX1X{.{.hXGXFXGXFXGXe.<.J.G.A.A.,.! `.`.`.`.`.`.`.`.`.`.",
"`.`.`.`.`.`.`.`.`.`.;XuXD.M.M.1.t.GXFXFXFXAX].zXCX X|.].VXFXFX9 bXFXFXbX).CXSX X|.[.GXFXGXFXvXo.K.H.S.S.!.;X`.`.`.`.`.`.`.`.`.`.",
"`.`.`.`.`.`.`.`.`.`.rXpX<.v.b.O.,XFXFXFXFX6X XlX,XX ]..X<XFXFX5XZXFXGX].XX5X2X. oX|.5XFXGXFXVX5.H.S.H.<.uXsX`.`.`.`.`.`.`.`.`.`.",
"`.`.`.`.`.`.`.`.`.`.5.W.-.v.b.1.e.DXFXFXFX1X+X).. o _.+X1XGXFXhXAXFXGX[.@X5 . o oX.X5XFXFXFXlXy.H.A.C.B.J.I.`.`.`.`.`.`.`.`.`.`.",
"`.`.`.`.`.`.`.`.`.`.P *.x.;.M.:.g.8X8X8XMXmX X+X|.OX#X XbXFXbX8.*XxXFXvX X+X XgX#XoXZXHXMXdX9Xl.B.B.A.A.;.I `.`.`.`.`.`.`.`.`.`.",
"`.`.`.`.`.`.`.`.`.`.-XR P.c.p.f.tXtXfXtXf.9XmXjXOXOXgXJXFXnXR uXaXT 6XFXbXgXOXOXlX8X9Xf.l.R.fXdXf.p.A.A.) -X`.`.`.`.`.`.`.`.`.`.",
"`.`.`.`.`.`.`.`.`.`.q.%.F.p.p.n.l.=.p.p.W.| MXFXHXGXFXFXDX;X1.Q.~.1.2.SXFXGXFXFXdX' b.=.b.=.R.p.R.f.| J.%.q.`.`.`.`.`.`.`.`.`.`.",
"`.`.`.`.`.`.`.`.`.`.q.wXE.| p.+.&.Q { =.&. .nXDXSXSXSXBX4X4.A.M.>.] D 4XvXVXSXSXf.b.&.&.| Q [ &.&.l.} J.yXq.`.`.`.`.`.`.`.`.`.`.",
"`.`.`.`.`.`.`.`.`.`.3XY.n.-.}  .*.{ [ :.&.g.2X5X5X3X:X7.X.C.v.[ ] W j.+.g.,X3X6Xs.&.&.=.| ^ x.=.=.| C.A.(.q.`.`.`.`.`.`.`.`.`.`.",
"`.`.`.`.`.`.`.`.`.`.,X_ h.z.-.$.;.M.y.c.D.Z.+.X.O.X.O.<.S.S.A.#.{ h.H.J.D.1.@.O.,.b.F.R.5.Z.A.C.b.A.A.A.+.q.`.`.`.`.`.`.`.`.`.`.",
"`.`.`.`.`.`.`.`.`.`.3Xk i.*.$.*.z.x.x.6.T.J.K.H.G.A.C.C.B.N.M.{ ] -.G.G.G.G.F.G.!./.T.5.L.H.A.A.G.B.B.v.Y q.`.`.`.`.`.`.`.`.`.`.",
"`.`.`.`.`.`.`.`.`.`.q.2._ h.$.$.-.x.v.V.k.6.E.!.J.F.B.B.D.N.:.#.{ >.S.H.G.!.!.~.(.6.k.S.S.B.;.N.B.C.S.;.7.q.`.`.`.`.`.`.`.`.`.`.",
"`.`.`.`.`.`.`.`.`.`.q.;Xh.h.$.*.z.z.c.V.D.-.5.u.T.(.~.Q.!.!.!.W.W.!././.uXyXU.k.k.B.S.N.B.N.B.B.B.A.M.~.qX`.`.`.`.`.`.`.`.`.`.`.",
"`.`.`.`.`.`.`.`.`.q.=Xe.wX#.$.$.z.z.z.z.x.M.Z.v.$.y.4.w.r.U.U.Y.U.d.;Xe.3.h.-.D.D.B.;.v.N.D.D.L.G.G.<.uXrXq.`.`.`.`.`.`.`.`.`.`.",
"`.`.`.`.`.`.`.`.`.q.3Xr.Y.#.h.j.j.c.z.-.-.x.v.V.;.N.O.2XNXvXhX4 <XBXVXhXT S.S.C.N.M.N.B.S.j./ ( j.H.D.Q.T.q.`.`.`.`.`.`.`.`.`.`.",
"`.`.`.`.`.`.`.`.`.q.5XW k.$.h.^ P k.c.z.x.v.V.Z.Z.Z.X.5XFXFXGXk nXFXFXbXT A.B.A.,.N.Z.D.j.( ....h.Q.<.J.~ q.`.`.`.`.`.`.`.`.`.`.",
"`.`.`.`.`.`.`.`.`.q.q.< U y.j.! ( U.c.c.x.x.V.Z.V.F.x.0.,X3X%XQ e.2X,X*Xy.J.S.C.M.Z.D.H.~ R ..R (.W.A.#.P q.`.`.`.`.`.`.`.`.`.`.",
"`.`.`.`.`.`.`.`.`.q.q.$XP ~ h.h.T.T.y.^ j.m.V.Z.*.p.R.(.(.n.*.n.l.*.n.R.R.n. .M.G.A.N.S.L.T.Y.aXuXB.M.I q.q.`.`.`.`.`.`.`.`.`.`.",
"`.`.`.`.`.`.`.`.`.q.q.}.3 4.$.h.-.^ P L ^ E.m.P.V.*.' ' p.} ' } } } ' ' '  .M.H.G.A.A.-.L./.^.!.,.D.^.q.q.t.q.`.`.`.`.`.`.`.`.`.",
"`.`.`.`.`.`.`.`.`.0.k &Xe.rX{ $.j.^ L Y d.P.x.V.Z.Z.Z.x.l.v.M.L.Z.S.V.M.Z.H.H.G.H.S.m.5.(.M.1.B.D.N.uXrX2Xk 0.`.`.`.`.`.`.`.`.`.",
"`.`.`.`.`.`.`.`.`.r.3.2X0.I.$.h.%.] / k.T.P.P.c.m.F.L.A.Z.A.H.H.S.S.Z.D.K.J.H.A.M.M.A.^./.B.:.,.F.A.F.6.w./ I.`.`.`.`.`.`.`.`.`.",
"`.`.`.`.`.`.`.`.`.6.W q.:XL Y L P 2.W Y T T I I ~ _ ) T I 3.] %.%.E 3.5.) X.) ~ 7.L Y R R ~ q.W I T I q.q.Q j.`.`.`.`.`.`.`.`.`.",
"`.`.`.`.`.`.`.`.`.Q D `.`.0 $X=X1XkXjX6X=X=X2X=X8.&X-X6XlX4Xq t Z w q jXxX0X0X=X&XjXcX0X0XlXBXbXcX=X5X`.`.w.-.`.`.`.`.`.`.`.`.`.",
"`.`.`.`.`.`.`.`.`.I 8.`.`.$XxXbXbXbXbXVXZXVXAXAXZXxX0XVXcX2XZXH u S vX0XbXAXkXxXDXFXFXFXFXFXFXFXFXnX5X`.`.*X>.`.`.`.`.`.`.`.`.`.",
"`.`.`.`.`.`.`.`.`.I 8.`.`.9 xXNXnXvXvXbXbXbXVXbXAXDXZXkX5XSXFX*Xw _.DXFXkXkXAXFXGXGXGXFXGXGXGXGXFXkX`.`.`.:XX.`.`.`.`.`.`.`.`.`.",
"`.`.`.`.`.`.`.`.7Xl *X`.`.K D G G G G G F G F G G F 9.9.a.a.J i A r D 9.a.a.a.9.s.9.9.s.s.F s.F 9.d `.`.`.`.) sX`.`.`.`.`.`.`.`.",
"`.`.`.`.`.`.`.`.d.l   `.`.K e z p = * ; = = g N N g ; ; ; * w i A i t $ ; % s N N z $ $ & $ $ s N e `.`.`.`.) rX`.`.`.`.`.`.`.`.",
"`.`.`.`.`.`.`.  u.P 2X`.`.$Xa m > O & & O & f m x f : - - O y u u u r + , - n V V x > > > d d n V e `.`.`.`.) I.`.`.`.`.`.`.`.`.",
"`.`.`.`.`.`.:Xd.k.] W   `.$Xa m n m n c h x x x x x x B C B n y u y d M V V V V V B V V V V B B B , `.`.  d.uXuXwX`.`.`.`.`.`.`.",
"`.`.`.`.`.`.u.k.{ $.) %X`.$X% s a a a f h h h h h h c g g g z c t p z z x x x M x M B C N z z z z ; `.`.6XZ.K.(.pXrX`.`.`.`.`.`.",
"`.`.`.`.,Xw.y.] _ 3.7.I `.2X7 8 8 7 7 : & & & & & - - 1 2 2 2 v 2 D 2 2 > , - * - * - = 7 D D D 2 8 `.,Xn.*.z.@.C.z.7X`.`.`.`.`.",
"`.`.`.`.>X8.Q 3X7X2.`.`.`.`.`.`.`.`.`.8 ; 1 d p , : O nX`.`.`.`.`.`.`.`.=X$ v d a v 1 o   `.`.`.`.`.`.  7X`.d.eXd.d.4.^ `.`.`.`.",
"`.`.`.`.`.0.>X  7.b `.`.`.`.`.`.`.`.`.7 $ % e d e $ :   `.`.`.`.`.`.`.`.  $ e f h j % o   `.`.`.`.`.`.`.`.`.` sX  u.w.`.`.`.`.`.",
"`.`.`.`.`.`.`.`.,X  `.`.`.`.`.`.`.`.`.`.`.`.0 < 0     `.`.`.`.`.`.`.`.`.`.    l k 6X`.`.`.`.`.`.`.`.`.`.`.`.,Xd.`.`.`.`.`.`.`.`.",
"`.`.`.`.`.`.`.`.`.`.`.`.`.`.`.`.`.`.`.`.`.`.`.~ *X`.`.`.`.`.`.`.`.`.`.`.`.`.`.Y._ `.`.`.`.`.`.`.`.`.`.`.`.`.`.`.`.`.`.`.`.`.`.`.",
"`.`.`.`.`.`.`.`.`.`.`.`.`.`.`.`.`.`.`.`.`.`.`.! %X`.`.`.`.`.`.`.`.`.`.`.`.`.`.7XU `.`.`.`.`.`.`.`.`.`.`.`.`.`.`.`.`.`.`.`.`.`.`.",
"`.`.`.`.`.`.`.`.`.`.`.`.`.`.`.`.`.`.`.`.`.`.`.J `.`.`.`.`.`.`.`.`.`.`.`.`.`.`.%X8.`.`.`.`.`.`.`.`.`.`.`.`.`.`.`.`.`.`.`.`.`.`.`.",
"`.`.`.`.`.`.`.`.`.`.`.`.`.`.`.`.`.`.`.`.`.`.`.[.`.`.`.`.`.`.`.`.`.`.`.`.`.`.`.  <X`.`.`.`.`.`.`.`.`.`.`.`.`.`.`.`.`.`.`.`.`.`.`.",
"`.`.`.`.`.`.`.`.`.`.`.`.`.`.`.`.`.`.`.`.`.`.`.H `.`.`.`.`.`.`.`.`.`.`.`.`.`.`.  *X`.`.`.`.`.`.`.`.`.`.`.`.`.`.`.`.`.`.`.`.`.`.`.",
"`.`.`.`.`.`.`.`.`.`.`.`.`.`.`.`.`.`.`.`.`.`.`.4X`.`.`.`.`.`.`.`.`.`.`.`.`.`.`.  cX`.`.`.`.`.`.`.`.`.`.`.`.`.`.`.`.`.`.`.`.`.`.`.",
"`.`.`.`.`.`.`.`.`.`.`.`.`.`.`.`.`.`.`.`.`.`.`.4X`.`.`.`.`.`.`.`.`.`.`.`.`.`.`.cXlX`.`.`.`.`.`.`.`.`.`.`.`.`.`.`.`.`.`.`.`.`.`.`.",
"`.`.`.`.`.`.`.`.`.`.`.`.`.`.`.`.`.`.`.`.`.`.`.xX`.`.`.`.`.`.`.`.`.`.`.`.`.`.`.xXvX`.`.`.`.`.`.`.`.`.`.`.`.`.`.`.`.`.`.`.`.`.`.`.",
"`.`.`.`.`.`.`.`.`.`.`.`.`.`.`.`.`.`.`.`.`.+ q 9 . . `.`.`.`.`.`.`.`.`.`.`.`.. 6 @ . . `.`.`.`.`.`.`.`.`.`.`.`.`.`.`.`.`.`.`.`.`.",
"`.`.`.`.`.`.`.`.`.`.`.`.`.`.`.`.`.. $X  . . . . + + `.`.`.`.`.`.`.`.`.`.`.`.. X . @ . 5XAX. `.`.`.`.`.`.`.`.`.`.`.`.`.`.`.`.`.`.",
"`.`.`.`.`.`.`.`.`.`.`.`.`.`.`.`.`.. @ 9 6 X . . . @ `.`.`.`.`.`.`.`.`.`.`.`.. . . . + + . X `.`.`.`.`.`.`.`.`.`.`.`.`.`.`.`.`.`.",
"`.`.`.`.`.`.`.`.`.`.`.`.`.`.`.`.`.. . . . . 0 `.`.`.`.`.`.`.`.`.`.`.`.`.`.`.`.`.`.`.. . . . `.`.`.`.`.`.`.`.`.`.`.`.`.`.`.`.`.`.",
"`.`.`.`.`.`.`.`.`.`.`.`.`.`.`.`.`.`.`.`.`.`.`.`.`.`.`.`.`.`.`.`.`.`.`.`.`.`.`.`.`.`.`.`.`.`.`.`.`.`.`.`.`.`.`.`.`.`.`.`.`.`.`.`.",
"`.`.`.`.`.`.`.`.`.`.`.`.`.`.`.`.`.`.`.`.`.`.`.`.`.`.`.`.`.`.`.`.`.`.`.`.`.`.`.`.`.`.`.`.`.`.`.`.`.`.`.`.`.`.`.`.`.`.`.`.`.`.`.`.",
"`.`.`.`.`.`.`.`.`.`.`.`.`.`.`.`.`.`.`.`.`.`.`.`.`.`.`.`.`.`.`.`.`.`.`.`.`.`.`.`.`.`.`.`.`.`.`.`.`.`.`.`.`.`.`.`.`.`.`.`.`.`.`.`."
};
