/* XPM */
static char *e18f25ba33464edfbdbd5e2625493ebfBJSjTEWaCp1Vy7DF[] = {
/* columns rows colors chars-per-pixel */
"64 64 98 2 ",
"   c #95002C",
".  c #970035",
"X  c #98043A",
"o  c #990B3E",
"O  c #990F40",
"+  c #9A1343",
"@  c #9B1947",
"#  c #9C1C4B",
"$  c #9D214F",
"%  c #9F2655",
"&  c #9F2857",
"*  c #9F2858",
"=  c #A02B5B",
"-  c #A33263",
";  c #A6376A",
":  c #A7396D",
">  c #A93E72",
",  c #AA4175",
"<  c #AC447A",
"1  c #3043D2",
"2  c #B04A84",
"3  c #B24E89",
"4  c #B15185",
"5  c #B4548D",
"6  c #B75592",
"7  c #B95896",
"8  c #BB5C9B",
"9  c #BD629E",
"0  c #BE60A1",
"q  c #C164A6",
"w  c #C367AA",
"e  c #C468AC",
"r  c #C76CB1",
"t  c #C96DB4",
"y  c #CD72BB",
"u  c #D55ECB",
"i  c #D563CC",
"p  c #D76DCE",
"a  c #D177C2",
"s  c #D279C5",
"d  c #D771CF",
"f  c #D873CF",
"g  c #D57DC9",
"h  c #D87BCE",
"j  c #D876D0",
"k  c #D97CD1",
"l  c #D980CF",
"z  c #DB83D3",
"x  c #DC88D4",
"c  c #DC8AD4",
"v  c #DE8AD6",
"b  c #DC8DD5",
"n  c #DD8DD5",
"m  c #DC8FD6",
"M  c #DE86D8",
"N  c #DE87D9",
"B  c #DF87D9",
"V  c #DE88D8",
"C  c #DC92D6",
"Z  c #DE92D7",
"A  c #DD97D7",
"S  c #DD98D8",
"D  c #DE9ED9",
"F  c #DE9FDA",
"G  c #E19CDA",
"H  c #E19EDB",
"J  c #DEA2DA",
"K  c #DFA2DB",
"L  c #DFA6DC",
"P  c #E2A2DC",
"I  c #E2A4DC",
"U  c #E3A7DD",
"Y  c #E0AADD",
"T  c #E0ACDE",
"R  c #E4ADDE",
"E  c #E5ACDF",
"W  c #E1B0DF",
"Q  c #E1B3DF",
"!  c #E4AEE0",
"~  c #E6B3E1",
"^  c #E1B4E0",
"/  c #E2B7E1",
"(  c #E2B8E1",
")  c #E7B9E3",
"_  c #E3BCE2",
"`  c #E3BDE3",
"'  c #E3BEE3",
"]  c #E3BFE4",
"[  c #E9BBE3",
"{  c #E3C1E4",
"}  c #E4C2E4",
"|  c #EBC4E7",
" . c #ECC8E8",
".. c #EDCAE9",
"X. c #F0D4ED",
"o. c #F1D9EF",
"O. c #F4DEF1",
"+. c #F5E3F3",
/* pixels */
"1 1 1 1 1 1 1 1 1 1 1 1 1 1 1 1 1 1 1 1 1 1 1 1 1 1 1 1 1 1 1 1 1 1 1 1 1 1 1 1 1 1 1 1 1 1 1 1 1 1 1 1 1 1 1 1 1 1 1 1 1 1 1 1 ",
"1 1 1 1 1 1 1 1 1 1 1 1 1 1 1 1 1 1 1 1 1 1 1 1 G b x k j d j d j j j j j k x S !  .1 1 1 1 1 1 1 1 1 1 1 1 1 1 1 1 1 1 1 1 1 1 ",
"1 1 1 1 1 1 1 1 1 1 1 1 1 1 1 1 1 1 1 1 c f f f k k z z x z z x x x x x z x z k k j k x G 1 1 1 1 1 1 1 1 1 1 1 1 1 1 1 1 1 1 1 ",
"1 1 1 1 1 1 1 1 1 1 1 1 1 1 1 1 1 c d f k x x x x z z z z z z z z k z z z V g w 5 4 9 y k j k G 1 1 1 1 1 1 1 1 1 1 1 1 1 1 1 1 ",
"1 1 1 1 1 1 1 1 1 1 1 1 1 1 U j f k b S C z z z z z z z z z z z k z z z x r = o @ @ + @ , 0 g z p x 1 1 1 1 1 1 1 1 1 1 1 1 1 1 ",
"1 1 1 1 1 1 1 1 1 1 1 1 1 j k x z P Q { ` Q x k z z z z z z z z z z z z s % # = = = = & # O % w N z f k 1 1 1 1 1 1 1 1 1 1 1 1 ",
"1 1 1 1 1 1 1 1 1 1 1 b f x z k Y } ` ( ` } b z z z z z k z z z z z z N y o = = & & * * = * % o t B z z f x 1 1 1 1 1 1 1 1 1 1 ",
"1 1 1 1 1 1 1 1 1 1 k k x x k C ` ` ` ` Q A l z z z z z z z z z z z z z z 6 . = = * & * % * - o 7 B z z x z p 1 1 1 1 1 1 1 1 1 ",
"1 1 1 1 1 1 1 1 1 h z x z k x T { ` ` T z k z z z z z z k z z z z z z z z x e ; + + # $ % # o % s z z z z z z j 1 1 1 1 1 1 1 1 ",
"1 1 1 1 1 1 1 1 1 k x k x J ( ] ( { ( z z z z z z z z z z z z z z z z z z z N h r 6 < : ; > 5 s x z z z z z x z j 1 1 1 1 1 1 1 ",
"1 1 1 1 1 1 1 1 j x k J ` } ` ` ` ` G k z z z z z z z z z z z z z z z z z z z z N x x k k z N x k z z z x g y z z x 1 1 1 1 1 1 ",
"1 1 1 1 1 1 1 d x z Y } ` ( ] ( U C k z z z z z z z z z z z z z z z z z k z z z z l z z z z z k z z k M s = o 2 z f 1 1 1 1 1 1 ",
"1 1 1 1 1 1 1 j x x ^ ` ` ] ^ x h z z z z z z k k z z z z z z z k z z z z z z N N N N x z z z z z z z N t o - X 8 x z 1 1 1 1 1 ",
"1 1 1 1 1 1 x z z x ( ` ( } J k z z z z z z z z z z z z z z z z z z z z z z z t 8 8 y x z z z z z z z z k : o o , x p 1 1 1 1 1 ",
"1 1 1 1 1 1 j x k x ` { ( { U k z z z z z z z z z z z z z z z z z z z z k z 7 . + + o 0 z z z z z z z z N g 6 > t V f 1 1 1 1 1 ",
"1 1 1 1 1 1 f x z L { ( ] ` b z z z z k z z z z z z z z z k z z z z z z z x , # - % = X e N k x z z z z z z B x x x k 1 1 1 1 1 ",
"1 1 1 1 1 1 f x L ] ` ] ( C k z z N V N N x z z z z z k z z z z z z z k k x y # % = = # 3 N z z k z z z z z k z z z k 1 1 1 1 1 ",
"1 1 1 1 1 1 d J { ` ` D z k z N g 0 7 7 q a N z z x z z z z z z z z z z x z B y - o #   w x z z z z z z z z z z z z z 1 1 1 1 1 ",
"1 1 1 1 1 1 j ( ` ` { C k z x t * + + + O $ 6 k x k z z z z z z z z z z z z z x h q 3 q z z z z z z z z z z z z z z k 1 1 1 1 1 ",
"1 1 1 1 1 1 z ] ` ` ` C z x a # % * * * = * o > g x k z z z z z z z z z z z z h z N B N k z z z z z z z z z z z z z h 1 1 1 1 1 ",
"1 1 1 1 1 1 f ` ` ` ^ x k N 7 + = % % % % * = X 6 N z z z z z z z z z z z z z z z z z z z z z z z z z z z z z z z x j 1 1 1 1 1 ",
"1 1 1 1 1 1 p J } } U k x x < # = = % % % % & % = h z z z k z z z z z z z z z z z z z z z z k z z z z z z z z k z x d 1 1 1 1 1 ",
"1 1 1 1 1 1 f z A D k z z z < # = % % = % % & = @ y N z z z z z z z z z z z z z k z z z z z z z z z z z z z z z z k x 1 1 1 1 1 ",
"1 1 1 1 1 1 b z z k z z z N 8 . = % & % % % % = @ y N z z z z z z z k z z z z z z z z z z z z z z k z z z z z z x j | 1 1 1 1 1 ",
"1 1 1 1 1 1 1 d x z z z z z k < X = = = = = = % = g z z z z z z z z z z z z z z z z z z z z z z z z z z z z z z k k 1 1 1 1 1 1 ",
"1 1 1 1 1 1 1 z z x z z z z x z 8 = o + # $ # . q x z z z z z z z z z z k z z z z z z z z z z z z z k z z z z x j ) 1 1 1 1 1 1 ",
"1 1 1 1 1 1 1 1 d x z z z z k z N g w 4 > : , e z z z z z z k z z z z z z z z z z z z k z k z z z z z z z z z z z 1 1 1 1 1 1 1 ",
"1 1 1 1 1 1 1 1 S j z z z z z z z z N N z k z x z z z z z z z z z z z z z z z z z z z z z z z z z z z z z z z j 1 1 1 1 1 1 1 1 ",
"1 1 1 1 1 1 1 1 1 k z x z z z z z z z z z z z z z z z z z z z z z z z k z z z z z z z z z z z z z z z z z z p 1 1 1 1 1 1 1 1 1 ",
"1 1 1 1 1 1 1 1 1 1 j z x z z z z z z z z z z z z z k z z z z z z z z z z z k z z z z z z z z z z z z z z 1 1 1 1 1 1 1 1 1 1 1 ",
"1 1 1 1 1 1 1 1 1 1 1 x f x z x z z z z z z z z z z z z z z z z z z z z z z N z z z z x z z x z z z k p x 1 1 1 1 1 1 1 1 1 1 1 ",
"1 1 1 1 1 1 1 1 1 1 1 1 ^ k d k k d d k z z z z z z z z z z z z z z z z z z z z z x x h p x x z j z G 1 1 1 1 1 1 1 1 1 1 1 1 1 ",
"1 1 1 1 1 1 1 1 1 1 1 1 z z [ G P ) | E k p h f f z z z z z z z z z z z z z z z k j f G X.+.+.+.O.1 1 1 1 1 1 1 1 1 1 1 1 1 1 1 ",
"1 1 1 1 1 1 1 1 1 1 1 p j ! z z x z  .+.O.~ R [ ) z z z z z z z z z z z z z z k H )  .O.) x x G P G z j k 1 1 1 1 1 1 1 1 1 1 1 ",
"1 1 1 1 1 1 1 1 1 1 1 f j i u p p p f f E  . .[ U z z z z z z z z z z z z z z k U ~ G z x z z z p d p h j 1 1 1 1 1 1 1 1 1 1 1 ",
"1 1 1 1 1 1 1 1 1 1 1 z z z z z z b k x k p f f k z x z k k k z z z z z z z z x k j k j z z z z z z z z z 1 1 1 1 1 1 1 1 1 1 1 ",
"1 1 1 1 1 1 1 1 1 1 1 z z z z z z z z z j k z k k f f k b G H x p k k z z z z z k f z z z 1 1 1 1 z G P G p z 1 1 1 1 1 1 1 1 1 ",
"1 1 1 1 1 1 1 1 1 1 1 G h f p u i U 1 z ~ P G G P 1 1 1 1 1 1 1 1 1 1 1 1 1 1 x G | z z z 1 1 1 1 1 1 G p x z j G 1 1 1 1 1 1 1 ",
"1 1 1 1 1 1 1 1 1 z f k k f G 1 1 1 1 z z z z z z 1 1 1 1 1 1 1 1 1 1 1 1 1 1 x x z z z z z z 1 1 1 1 1 1 j z x j k 1 1 1 1 1 1 ",
"1 1 1 1 1 1 1 k j x z j G 1 1 1 1 1 1 z p h i z z 1 1 1 1 1 1 1 1 1 1 1 1 1 1 G i p z z z k E 1 1 1 1 1 1 1 z k z z j 1 1 1 1 1 ",
"1 1 1 1 1 x j z x k x 1 1 1 1 1 1 G f z z z 1 1 1 1 1 1 1 1 1 1 1 1 1 1 1 1 1 1 1 k k x z z f z 1 1 1 1 1 1 1 1 k x z d 1 1 1 1 ",
"1 1 1 1 p z x x j R 1 1 1 1 1 1 p k x j G 1 1 1 1 1 1 1 1 1 1 1 1 1 1 1 1 1 1 1 1 1 G f x z x z p 1 1 1 1 1 1 1 1 z z z k 1 1 1 ",
"1 1 1 f z z z f 1 1 1 1 1 1 1 d z z j U 1 1 1 1 1 1 1 1 1 1 1 1 1 1 1 1 1 1 1 1 1 1 1 1 f z z z x p 1 1 1 1 1 1 1 d x x k G 1 1 ",
"1 1 x k z x f 1 1 1 1 1 1 1 d z x k G 1 1 1 1 1 1 1 1 1 1 1 1 1 1 1 1 1 1 1 1 1 1 1 1 1 1 h z z z x d 1 1 1 1 1 1 z k z z d 1 1 ",
"1 1 p x x h R 1 1 1 1 1 1 k z z k z 1 1 1 1 1 1 1 1 1 1 1 1 1 1 1 1 1 1 1 1 1 1 1 1 1 1 1 1 f z z z k C 1 1 1 1 1 z d x x j U 1 ",
"1 G k z z k 1 1 1 1 1 1 ~ j z z f 1 1 1 1 1 1 1 1 1 1 1 1 1 1 1 1 1 1 1 1 1 1 1 1 1 1 1 1 1 1 j x z z j 1 1 1 1 1 z j x z z x 1 ",
"1 x z z k b 1 1 1 1 1 1 z z z z z 1 1 1 1 1 1 1 1 1 1 1 1 1 1 1 1 1 1 1 1 1 1 1 1 1 1 1 1 1 1 b k z x j 1 1 1 1 1 z d x z z k 1 ",
"1 k x x k G 1 1 1 1 1 1 p z z k G 1 1 1 1 1 1 1 1 1 1 1 1 1 1 1 1 1 1 1 1 1 1 1 1 1 1 1 1 1 1 1 f x z j 1 1 1 1 1 z j x z z k 1 ",
"1 k z z k C 1 1 1 1 1 1 j z z k G 1 1 1 1 1 1 1 1 1 1 1 1 1 1 1 1 1 1 1 1 1 1 1 1 1 1 1 1 1 1 1 j x z j 1 1 1 1 1 x z z z k x 1 ",
"1 k z z x k 1 1 1 1 1 1 f x z k G 1 1 1 1 1 1 1 1 1 1 1 1 1 1 1 1 1 1 1 1 1 1 1 1 1 1 1 1 1 1 1 p x x j 1 1 1 1 1 z x z x j ) 1 ",
"1 C z z z j 1 1 1 1 1 1 p x z z k 1 1 1 1 1 1 1 1 1 1 1 1 1 1 1 1 1 1 1 1 1 1 1 1 1 1 1 1 1 1 ! k z x d 1 1 1 1 z z z z x j 1 1 ",
"1 ) p x z x j E 1 1 1 1 f x z x k U 1 1 1 1 1 1 1 1 1 1 1 1 1 1 1 1 1 1 1 1 1 1 1 1 1 1 1 1 1 j z z z k 1 1 1 U j x k x j U 1 1 ",
"1 1 G j x z x j x 1 1 1 ! j x z z j 1 1 1 1 1 1 1 1 1 1 1 1 1 1 1 1 1 1 1 1 1 1 1 1 1 1 1 1 j z z x d 1 1 1 1 j x z x k z 1 1 1 ",
"1 1 1 x k x z x z f U 1 1 b j x z x j P 1 1 1 1 1 1 1 1 1 1 1 1 1 1 1 1 1 1 1 1 1 1 1 1 ! p z z x k C 1 1 ! f x z x k k 1 1 1 1 ",
"1 1 1 1 G p x z z x j k 1 1 G p z x x j k R 1 1 1 1 1 1 1 1 1 1 1 1 1 1 1 1 1 1 1 1 1 x j x z x z k 1 1 U p x z z k z 1 1 1 1 1 ",
"1 1 1 1 1 U f k x z x k j 1 1 1 z j k x x j j P 1 1 1 1 1 1 1 1 1 1 1 1 1 1 1 1 1 1 d k x z x k k 1 1 1 j x z z z z 1 1 1 1 1 1 ",
"1 1 1 1 1 1 1 G p z z z z d 1 1 1 1 x j z x x k j 1 1 1 1 1 1 1 1 1 1 1 1 1 1 1 G p x z z x k x 1 1 1 f x z z z j 1 1 1 1 1 1 1 ",
"1 1 1 1 1 1 1 1 1 k z z z z h 1 1 1 1 1 z k x z x f x 1 1 1 1 1 1 1 1 1 1 1 ) j k x z x k p R 1 1 1 z z z z x f ~ 1 1 1 1 1 1 1 ",
"1 1 1 1 1 1 1 1 1 1 z z z x j U 1 1 1 1 1 P f x z x k j 1 1 1 1 1 1 1 1 1 b p x z z x h b 1 1 1 1 1 f x z z z k 1 1 1 1 1 1 1 1 ",
"1 1 1 1 1 1 1 1 1 1 1 d x z z z 1 1 1 1 1 1 U h z z z k G 1 1 1 1 1 1 1 P j x z x x j T 1 1 1 1 1 G k z z z k G 1 1 1 1 1 1 1 1 ",
"1 1 1 1 1 1 1 1 1 1 1 x k z x j 1 1 1 1 1 1 1 k x z z x j 1 1 1 1 1 1 1 k z z z x f 1 1 1 1 1 1 1 P k z z x p 1 1 1 1 1 1 1 1 1 ",
"1 1 1 1 1 1 1 1 1 1 1 P k x x j 1 1 1 1 1 1 1 U d x z x d 1 1 1 1 1 1 1 k x z x j H 1 1 1 1 1 1 1 1 p k k p 1 1 1 1 1 1 1 1 1 1 ",
"1 1 1 1 1 1 1 1 1 1 1 1 p k j k 1 1 1 1 1 1 1 1 z j z j z 1 1 1 1 1 1 1 x k z d z 1 1 1 1 1 1 1 1 1 1 ~ ! 1 1 1 1 1 1 1 1 1 1 1 ",
"1 1 1 1 1 1 1 1 1 1 1 1 1 U G 1 1 1 1 1 1 1 1 1 1 Y b G 1 1 1 1 1 1 1 1 1 z x ~ 1 1 1 1 1 1 1 1 1 1 1 1 1 1 1 1 1 1 1 1 1 1 1 1 "
};
